# xmcd CD database file
#
# Track frame offsets:
#	150
#	11235
#	27193
#	42936
#	56916
#	77313
#	89230
#	98254
#	113651
#	127406
#	145215
#	159336
#
# Disc length: 2320 seconds
#
# Revision: 0
# Processed by: cddbd v1.5.1PL2 Copyright (c) Steve Scherf et al.
# Submitted via: CDex 1.51
#
DISCID=99090e0c
DTITLE=Mel Aucoin and Bob Lucier - 88 and 10
DYEAR=2005
DGENRE=Country
TTITLE0=Big Beaver
TTITLE1=Tennessee Waltz
TTITLE2=So Afraid Of Losing You Again
TTITLE3=Don't Know Why
TTITLE4=Silver Wings
TTITLE5=Behind Closed Doors
TTITLE6=Song For Alice
TTITLE7=King Of The Road
TTITLE8=It Don't Hurt Anymore
TTITLE9=Someday Soon
TTITLE10=Blue Eyes Crying In The Rain
TTITLE11=Lonestar
EXTD=YEAR: 2005
EXTT0=
EXTT1=
EXTT2=
EXTT3=
EXTT4=
EXTT5=
EXTT6=
EXTT7=
EXTT8=
EXTT9=
EXTT10=
EXTT11=
PLAYORDER=
